<svg width="641" height="502" viewBox="0 0 641 502" fill="none" xmlns="http://www.w3.org/2000/svg">
<g clip-path="url(#clip0_1_1553)">
<circle cx="328" cy="251" r="240" fill="white"/>
<path d="M377 175C375.333 179.384 372.032 182.184 368.742 185.383C368.12 185.997 367.498 186.611 366.858 187.244C364.207 189.862 361.545 192.469 358.884 195.075C352.128 201.704 345.558 208.22 339.79 215.748C336.651 219.697 333.083 223.207 329.5 226.75C328.792 227.465 328.085 228.181 327.355 228.918C325.275 230.991 323.157 233.007 321 235C320.338 235.624 319.675 236.248 318.993 236.891C314.353 240.869 314.353 240.869 310.93 241.201C308.632 240.938 306.538 240.441 304.312 239.813C303.499 239.612 302.685 239.411 301.846 239.205C292.894 236.909 284.156 233.87 275.434 230.833C271.915 229.629 268.368 228.526 264.812 227.438C259.199 225.71 253.627 223.88 248.062 222C240.942 219.598 233.781 217.421 226.551 215.371C222.67 214.237 218.847 212.952 215.016 211.66C206.184 208.685 197.264 206.026 188.331 203.375C178.772 200.534 169.357 197.457 160 194C160.758 190.409 161.533 189.203 164.562 187.063C165.523 186.368 165.523 186.368 166.504 185.66C167.739 184.838 167.739 184.838 169 184C169.866 183.367 169.866 183.367 170.75 182.721C175.881 179.169 179.7 178.265 185.875 178.25C186.778 178.227 187.682 178.205 188.613 178.182C190.764 178.131 192.916 178.092 195.068 178.061C200.649 177.975 206.229 177.835 211.809 177.699C216.346 177.589 220.884 177.483 225.421 177.392C233.674 177.22 241.907 176.974 250.148 176.504C264.46 175.716 278.799 175.647 293.128 175.468C295.519 175.437 297.909 175.406 300.3 175.373C325.867 175.031 351.43 174.86 377 175Z" fill="#243A3D"/>
<path d="M406 197C406.66 197 407.32 197 408 197C409.89 208.587 411.777 220.174 413.659 231.762C414.541 237.187 415.428 242.612 416.32 248.035C416.672 250.19 417.024 252.345 417.375 254.5C417.53 255.432 417.685 256.364 417.845 257.324C418.561 261.743 419.123 266.124 419.488 270.586C419.907 275.537 420.755 280.276 421.812 285.125C425.04 300.593 427.436 316.217 429.441 331.887C431.028 343.898 433.021 355.864 434.926 367.828C435.066 368.708 435.206 369.587 435.35 370.493C435.61 372.126 435.873 373.758 436.136 375.39C437 380.783 437 380.783 437 383C426.204 379.944 420.247 369.883 413.799 361.297C410.197 356.513 406.455 351.985 402.383 347.59C395.177 339.758 388.154 331.704 381.727 323.219C379.623 320.516 377.406 317.922 375.188 315.312C371.502 310.927 368.1 306.439 364.812 301.75C359.685 294.454 354.481 288.026 347.559 282.383C346 281 346 281 343.875 278.188C341.654 275.596 340.34 275.278 337 275C338.367 271.882 339.869 269.961 342.414 267.715C343.089 267.108 343.763 266.5 344.458 265.875C345.531 264.916 345.531 264.916 346.625 263.938C352.129 258.902 356.845 253.979 361.051 247.785C368.207 237.561 377.105 228.78 385.975 220.063C390.516 215.574 394.633 211.047 398.488 205.953C400.464 203.401 402.686 201.243 405 199C405.33 198.34 405.66 197.68 406 197Z" fill="#162B31"/>
<path d="M295 318C295.03 318.947 295.03 318.947 295.06 319.914C295.44 331.561 295.949 343.148 297.062 354.75C297.925 364.029 298.187 373.245 298.188 382.562C298.188 383.794 298.189 385.025 298.19 386.294C298.155 391.958 298.024 397.423 297 403C291.917 403 290.922 401.679 287.328 398.371C283.099 394.064 279.287 389.413 275.454 384.757C273.018 381.814 270.538 378.91 268.062 376C265.648 373.16 263.248 370.324 260.98 367.363C258.922 364.907 256.809 363.107 254.25 361.188C253.051 360.281 253.051 360.281 251.828 359.355C250.923 358.685 250.923 358.685 250 358C253.135 350.858 260.078 345.821 265.887 340.836C268.196 338.83 270.437 336.759 272.688 334.688C291.153 318 291.153 318 295 318Z" fill="#0D242E"/>
<path d="M193 301C199.828 300.974 206.656 300.957 213.483 300.945C215.799 300.94 218.115 300.933 220.431 300.925C233.329 300.877 246.14 300.923 259 302C256.965 305.48 254.926 308.286 252.125 311.188C247.009 316.706 242.789 322.77 238.606 329.018C237.819 330.156 237.819 330.156 237.016 331.316C236.554 332.002 236.093 332.687 235.618 333.393C233.433 335.563 232.06 335.807 229 336C226.088 335.414 226.088 335.414 222.871 334.41C221.68 334.042 220.488 333.673 219.261 333.293C217.986 332.884 216.712 332.474 215.438 332.063C214.795 331.859 214.152 331.655 213.49 331.445C205.005 328.755 196.597 325.887 188.312 322.625C187.489 322.304 186.665 321.983 185.816 321.653C180.252 319.378 180.252 319.378 178 316C181.848 312.027 185.928 308.39 190.109 304.77C192.079 303.131 192.079 303.131 193 301Z" fill="#132830"/>
<path d="M446 129C444.778 147.936 440.251 163.958 427 178C424.732 179.916 422.533 181.437 420 183C421.074 180.085 421.778 178.222 424 176C425.37 169.458 425.332 162.723 425.562 156.063C425.627 154.321 425.627 154.321 425.693 152.545C425.799 149.697 425.901 146.848 426 144C418.148 145.399 410.764 147.248 403.312 150.063C402.63 150.32 401.947 150.577 401.244 150.842C398.239 152.01 395.694 153.204 393 155C393.85 148.305 401.061 143.319 406.055 139.379C413.684 134.298 422.348 131.963 431.25 130.25C431.911 130.122 432.573 129.994 433.254 129.863C437.546 129.098 441.647 128.887 446 129Z" fill="#13303A"/>
<path d="M423 157C423.33 157 423.66 157 424 157C426.209 162.978 425.932 167.74 425 174C424.34 174 423.68 174 423 174C423 174.66 423 175.32 423 176C422.34 176 421.68 176 421 176C421 176.66 421 177.32 421 178C420.01 178.495 420.01 178.495 419 179C418.67 179.66 418.34 180.32 418 181C417.01 181.33 416.02 181.66 415 182C414.691 182.66 414.381 183.32 414.062 184C413 186 413 186 410.875 186.75C409.947 186.874 409.947 186.874 409 187C409.33 188.32 409.66 189.64 410 191C408.917 191.34 408.917 191.34 407.812 191.688C404.436 193.263 402.442 195.209 400 198C400 198.66 400 199.32 400 200C398.385 203.808 398.385 203.808 396 205C395.897 205.639 395.794 206.279 395.688 206.938C395 209 395 209 392.75 210.312C389.739 211.065 387.955 210.844 385 210C384.67 210.66 384.34 211.32 384 212C383.34 211.01 382.68 210.02 382 209C381.01 209 380.02 209 379 209C379 208.01 379 207.02 379 206C379.99 205.505 379.99 205.505 381 205C380.34 204.01 379.68 203.02 379 202C380.485 201.505 380.485 201.505 382 201C382 200.34 382 199.68 382 199C382.99 199 383.98 199 385 199C383.515 195.535 383.515 195.535 382 192C383.98 191.505 383.98 191.505 386 191C386.33 189.68 386.66 188.36 387 187C387.66 187 388.32 187 389 187C389 186.01 389 185.02 389 184C389.928 183.876 389.928 183.876 390.875 183.75C393.144 183.214 393.144 183.214 394 181.188C394.33 180.466 394.66 179.744 395 179C396.288 177.623 397.628 176.294 399 175C399.743 174.196 400.485 173.391 401.25 172.562C404.488 169.546 407.922 166.791 412 165C412.99 165.33 413.98 165.66 415 166C414.67 166.66 414.34 167.32 414 168C418.679 165.357 418.679 165.357 421.312 160.812C421.539 159.884 421.766 158.956 422 158C422.33 157.67 422.66 157.34 423 157Z" fill="#E3E0D1"/>
<path d="M343 242C343.99 242.99 343.99 242.99 345 244C344.518 244.352 344.036 244.704 343.539 245.066C338.871 248.715 337.052 251.153 336 257C335.34 257 334.68 257 334 257C333.629 258.64 333.629 258.64 333.25 260.312C331.98 264.059 331.408 265.19 328 267C327.34 267 326.68 267 326 267C326 267.66 326 268.32 326 269C325.34 269 324.68 269 324 269C323.629 269.866 323.629 269.866 323.25 270.75C321.817 273.329 320.216 275.061 318 277C317.34 277 316.68 277 316 277C315.629 278.052 315.629 278.052 315.25 279.125C313.84 282.369 311.974 285.072 310 288C309.67 288.99 309.34 289.98 309 291C307.293 292.246 307.293 292.246 305.188 293.438C302.01 295.32 299.474 297.216 297 300C296.67 299.34 296.34 298.68 296 298C295.529 298.566 295.059 299.132 294.574 299.715C293.952 300.448 293.329 301.182 292.688 301.938C292.073 302.668 291.458 303.399 290.824 304.152C289 306 289 306 286 307C285.718 307.71 285.435 308.421 285.145 309.152C283.632 312.915 281.323 315.521 278.688 318.562C278.214 319.126 277.74 319.69 277.252 320.271C274.405 323.602 271.447 326.277 268 329C266.489 330.62 265.029 332.288 263.625 334C262.562 335.268 262.562 335.268 261.477 336.562C259.787 338.846 259.787 338.846 260.086 341.25C260.932 343.363 260.932 343.363 264 344C262.065 345.794 260.127 347.585 258.188 349.375C257.64 349.883 257.093 350.391 256.529 350.914C249.964 356.962 249.964 356.962 245.812 357.125C244.884 357.084 243.956 357.043 243 357C243 356.34 243 355.68 243 355C242.34 354.67 241.68 354.34 241 354C241.526 350.212 242.381 347.828 245 345C245.66 345 246.32 345 247 345C247.403 344.114 247.403 344.114 247.814 343.209C249.003 340.995 250.24 339.464 251.969 337.652C252.54 337.047 253.111 336.442 253.699 335.818C254.293 335.198 254.888 334.577 255.5 333.938C256.679 332.698 257.856 331.458 259.031 330.215C259.553 329.669 260.074 329.124 260.611 328.562C262.206 326.841 262.206 326.841 264 324C264.66 324 265.32 324 266 324C266 323.34 266 322.68 266 322C267.644 320.638 269.315 319.31 271 318C272.679 316.346 274.344 314.678 276 313C277.599 311.422 279.2 309.845 280.801 308.27C282.638 306.451 284.475 304.632 286.312 302.812C287.225 301.917 288.137 301.022 289.076 300.1C294.847 294.37 300.032 288.432 305 282C333.537 246.732 333.537 246.732 343 242Z" fill="#AEAEA4"/>
<path d="M343 242C343.66 242.66 344.32 243.32 345 244C344.277 244.528 344.277 244.528 343.539 245.066C338.871 248.715 337.052 251.153 336 257C335.34 257 334.68 257 334 257C333.753 258.093 333.505 259.186 333.25 260.312C331.98 264.059 331.408 265.19 328 267C327.34 267 326.68 267 326 267C326 267.66 326 268.32 326 269C325.34 269 324.68 269 324 269C323.753 269.577 323.505 270.155 323.25 270.75C321.817 273.329 320.216 275.061 318 277C317.34 277 316.68 277 316 277C315.67 277.99 315.34 278.98 315 280C313.476 276.953 314.346 274.625 315.122 271.394C316.626 267.295 319.365 264.641 322.438 261.625C323.37 260.671 323.37 260.671 324.321 259.697C326.199 257.782 328.098 255.891 330 254C331.102 252.877 332.202 251.752 333.301 250.625C340.568 243.216 340.568 243.216 343 242Z" fill="#B6BCB6"/>
<path d="M382 218C382 218.99 382 219.98 382 221C381.01 221.33 380.02 221.66 379 222C379.33 221.01 379.66 220.02 380 219C380.66 218.67 381.32 218.34 382 218ZM377 222C377.66 222.33 378.32 222.66 379 223C377.766 228.682 375.999 231.655 371.875 235.938C371.173 236.677 371.173 236.677 370.457 237.432C369.315 238.631 368.159 239.817 367 241C365.68 240.67 364.36 240.34 363 240C363.33 239.01 363.66 238.02 364 237C363.216 237.474 362.433 237.949 361.625 238.438C360.111 239.339 358.576 240.212 357 241C357 240.34 357 239.68 357 239C356.34 239 355.68 239 355 239C354.67 239.99 354.34 240.98 354 242C354.66 242.66 355.32 243.32 356 244C352.375 247 352.375 247 349 247C348.67 247.99 348.34 248.98 348 250C347.01 249.34 346.02 248.68 345 248C346.509 244.158 348.768 242.48 352 240C352.804 239.134 353.609 238.267 354.438 237.375C357.596 234.448 360.646 233 365 233C365 232.34 365 231.68 365 231C366.461 229.492 366.461 229.492 368.375 227.875C369.315 227.067 369.315 227.067 370.273 226.242C372 225 372 225 374 225C374 224.34 374 223.68 374 223C374.99 222.67 375.98 222.34 377 222Z" fill="#D7D6CB"/>
<path d="M261 334C261.66 334.33 262.32 334.66 263 335C262.484 335.577 261.969 336.155 261.438 336.75C259.778 338.863 259.778 338.863 260.125 341.188C260.414 341.786 260.702 342.384 261 343C261.99 343.33 262.98 343.66 264 344C262.065 345.794 260.127 347.585 258.188 349.375C257.367 350.137 257.367 350.137 256.529 350.914C249.964 356.962 249.964 356.962 245.812 357.125C244.42 357.063 244.42 357.063 243 357C243 356.34 243 355.68 243 355C242.34 354.67 241.68 354.34 241 354C241.354 350.814 241.83 349.209 243.875 346.688C246 345 246 345 249 345C250.34 345.306 251.675 345.635 253 346C252.67 344.68 252.34 343.36 252 342C252.619 341.732 253.238 341.464 253.875 341.188C256.3 340.044 256.3 340.044 258 337C258.66 337 259.32 337 260 337C260.33 336.01 260.66 335.02 261 334Z" fill="#B5B3AC"/>
<path d="M311 246C311 246.99 311 247.98 311 249C310.376 249.235 309.752 249.469 309.109 249.711C306.397 251.368 306.11 252.614 305.25 255.625C305.008 256.442 304.765 257.26 304.516 258.102C304.345 258.728 304.175 259.355 304 260C303.34 260 302.68 260 302 260C302.33 260.99 302.66 261.98 303 263C301.68 263 300.36 263 299 263C299 263.66 299 264.32 299 265C298.34 265.33 297.68 265.66 297 266C296.752 266.763 296.505 267.526 296.25 268.312C294.594 271.873 292.288 272.971 289 275C288.67 275.66 288.34 276.32 288 277C286.206 277.804 286.206 277.804 284.375 278.625C279.36 280.996 276.354 284.681 273 289C273 284.83 274.73 283.806 277.562 280.812C278.494 279.816 279.425 278.818 280.355 277.82C281.228 276.89 282.101 275.959 283 275C285.366 272.362 287.685 269.683 290 267C290.468 266.459 290.935 265.918 291.417 265.36C293.03 263.492 294.64 261.621 296.25 259.75C296.77 259.147 297.29 258.544 297.826 257.923C299.888 255.52 301.889 253.154 303.734 250.578C304.152 250.057 304.57 249.537 305 249C305.66 249 306.32 249 307 249C307 248.34 307 247.68 307 247C309 246 309 246 311 246Z" fill="#CACABE"/>
<path d="M276 322C277.125 325.75 277.125 325.75 276 328C276.99 328.66 277.98 329.32 279 330C265.814 343.487 265.814 343.487 260 344C259.219 341.875 259.219 341.875 259 339C260.425 336.729 261.735 334.969 263.5 333C263.956 332.472 264.412 331.944 264.882 331.399C268.264 327.58 271.659 324.642 276 322Z" fill="#C0C4C3"/>
<path d="M294 318C294.33 318.66 294.66 319.32 295 320C290.923 325.606 285.717 329.852 280.312 334.125C277.874 336.012 277.874 336.012 275.562 338.625C272.778 341.206 270.643 342.068 267 343C268.385 337.287 272.65 334.535 277 331C277.911 330.238 278.823 329.476 279.762 328.691C284.362 324.869 288.917 321.16 294 318Z" fill="#041016"/>
<path d="M310 254C311.32 255.32 312.64 256.64 314 258C308.25 261 308.25 261 306 261C306 261.66 306 262.32 306 263C306.99 262.67 307.98 262.34 309 262C309 262.99 309 263.98 309 265C308.196 265.248 307.391 265.495 306.562 265.75C303.829 266.722 303.829 266.722 303.188 269.125C303.126 269.744 303.064 270.363 303 271C301.68 271 300.36 271 299 271C299 271.66 299 272.32 299 273C297.68 272.67 296.36 272.34 295 272C295.66 269.69 296.32 267.38 297 265C297.66 265 298.32 265 299 265C299 264.34 299 263.68 299 263C299.99 262.67 300.98 262.34 302 262C302 261.34 302 260.68 302 260C303.32 259.67 304.64 259.34 306 259C306 258.34 306 257.68 306 257C307.32 256.67 308.64 256.34 310 256C310 255.34 310 254.68 310 254Z" fill="#E9EADF"/>
<path d="M312 274C312 279.483 309.071 284.357 306.125 288.875C303.644 291.356 301.162 292.52 298 294C296.184 295.561 296.184 295.561 295 297C295 292.753 297.446 290.784 300.125 287.75C300.626 287.171 301.127 286.592 301.644 285.995C302.638 284.847 303.636 283.702 304.636 282.559C306.336 280.616 308.013 278.653 309.688 276.688C310.451 275.801 311.214 274.914 312 274Z" fill="#979F97"/>
<path d="M398 203C398.686 204.768 398.686 204.768 399 207C397.832 208.844 397.832 208.844 396.027 210.715C395.374 211.401 394.722 212.088 394.049 212.795C393.352 213.502 392.655 214.209 391.938 214.938C391.268 215.641 390.598 216.344 389.908 217.068C386.132 220.992 382.258 224.606 378 228C377.625 225.812 377.625 225.812 378 223C379.84 221.01 381.792 219.61 384 218C384.66 218.33 385.32 218.66 386 219C386.062 218.443 386.124 217.886 386.188 217.312C387.352 213.999 389.395 212.295 392 210C392.99 209.67 393.98 209.34 395 209C395.124 208.196 395.248 207.391 395.375 206.562C395.684 205.294 395.684 205.294 396 204C396.66 203.67 397.32 203.34 398 203Z" fill="#C2C4B8"/>
<path d="M261 334C261.66 334.33 262.32 334.66 263 335C262.484 335.577 261.969 336.155 261.438 336.75C259.778 338.863 259.778 338.863 260.125 341.188C260.414 341.786 260.702 342.384 261 343C261.99 343.33 262.98 343.66 264 344C258.25 349 258.25 349 256 349C256 348.01 256 347.02 256 346C255.34 346 254.68 346 254 346C253.67 346.66 253.34 347.32 253 348C250.938 348.625 250.938 348.625 249 349C249.33 348.01 249.66 347.02 250 346C250.99 346 251.98 346 253 346C252.67 344.68 252.34 343.36 252 342C252.619 341.732 253.238 341.464 253.875 341.188C256.3 340.044 256.3 340.044 258 337C258.66 337 259.32 337 260 337C260.33 336.01 260.66 335.02 261 334Z" fill="#B4B9B5"/>
<path d="M343 244C343.66 244.66 344.32 245.32 345 246C344.288 247.361 344.288 247.361 343.562 248.75C342.354 251.264 341.52 253.296 341 256C340.34 256 339.68 256 339 256C339 256.66 339 257.32 339 258C339.66 258.33 340.32 258.66 341 259C340.196 259.124 339.391 259.248 338.562 259.375C337.717 259.581 336.871 259.787 336 260C335.67 260.66 335.34 261.32 335 262C334.34 262 333.68 262 333 262C333.375 259.562 333.375 259.562 334 257C334.66 256.67 335.32 256.34 336 256C336.268 254.928 336.536 253.855 336.812 252.75C338.133 248.58 339.741 246.831 343 244Z" fill="#C5C7BF"/>
<path d="M298 258C298.66 258.33 299.32 258.66 300 259C299.322 259.739 298.644 260.477 297.945 261.238C294.961 264.49 291.98 267.745 289 271C288.536 271.507 288.072 272.013 287.594 272.535C282.639 277.95 277.736 283.392 273 289C273 284.83 274.73 283.806 277.562 280.812C278.489 279.822 279.415 278.831 280.34 277.84C281.218 276.903 282.096 275.966 283 275C284.216 273.632 285.426 272.258 286.625 270.875C290.382 266.553 294.19 262.276 298 258Z" fill="#99998B"/>
<path d="M338 217C338 220 338 220 337 222C337.99 222.66 338.98 223.32 340 224C338.755 225.13 337.504 226.254 336.25 227.375C335.554 228.001 334.858 228.628 334.141 229.273C332.155 230.875 330.32 231.965 328 233C329.697 225.875 332.437 221.74 338 217Z" fill="#DEE1D7"/>
<path d="M343 242C343.66 242.66 344.32 243.32 345 244C344.457 244.459 343.915 244.918 343.355 245.391C342.64 246.004 341.925 246.618 341.188 247.25C340.48 247.853 339.772 248.457 339.043 249.078C336.94 250.939 336.94 250.939 335.363 253.234C334.913 253.817 334.464 254.4 334 255C333.34 255 332.68 255 332 255C332 255.66 332 256.32 332 257C331.34 257 330.68 257 330 257C330 257.66 330 258.32 330 259C328.35 259.66 326.7 260.32 325 261C326.349 257.991 327.852 255.901 330.188 253.582C330.804 252.968 331.42 252.354 332.055 251.721C332.697 251.091 333.339 250.461 334 249.812C334.642 249.171 335.284 248.53 335.945 247.869C340.719 243.141 340.719 243.141 343 242Z" fill="#AFB0A6"/>
<path d="M369 218C368.188 220.437 368.188 220.437 367 223C366.01 223.33 365.02 223.66 364 224C363.01 225.485 363.01 225.485 362 227C359.375 227.187 359.375 227.187 357 227C357.66 226.34 358.32 225.68 359 225C358.34 224.34 357.68 223.68 357 223C360.099 218.351 363.576 217.69 369 218Z" fill="#E0DDD0"/>
<path d="M336 251C336.33 251 336.66 251 337 251C337 252.65 337 254.3 337 256C336.01 256.33 335.02 256.66 334 257C333.67 257.99 333.34 258.98 333 260C331.004 262.883 329.877 263.023 326.312 263.688C325.219 263.791 324.126 263.894 323 264C323.33 262.68 323.66 261.36 324 260C325.98 259.67 327.96 259.34 330 259C330 258.34 330 257.68 330 257C330.66 257 331.32 257 332 257C332 256.34 332 255.68 332 255C332.66 255 333.32 255 334 255C334.66 253.68 335.32 252.36 336 251Z" fill="#B4B7AF"/>
<path d="M315 270C315.66 270 316.32 270 317 270C316.546 271.585 316.087 273.168 315.625 274.75C315.37 275.632 315.115 276.513 314.852 277.422C314.066 279.799 313.328 281.878 312 284C311.01 284.33 310.02 284.66 309 285C309.426 283.247 309.866 281.498 310.312 279.75C310.556 278.775 310.8 277.801 311.051 276.797C312.005 273.985 312.989 272.172 315 270ZM308 285C308 285.99 308 286.98 308 288C306.02 288.99 306.02 288.99 304 290C305.32 288.35 306.64 286.7 308 285Z" fill="#A8B1A9"/>
<path d="M389 201C389.33 201.99 389.66 202.98 390 204C389.01 204.66 388.02 205.32 387 206C387.99 206.66 388.98 207.32 390 208C389.67 208.66 389.34 209.32 389 210C387.68 210 386.36 210 385 210C384.67 210.66 384.34 211.32 384 212C383.34 211.01 382.68 210.02 382 209C381.01 209 380.02 209 379 209C379 208.01 379 207.02 379 206C379.908 205.732 380.815 205.464 381.75 205.188C384.715 204.104 386.617 203.016 389 201Z" fill="#EAE8D9"/>
<path d="M405 195C406.938 195.312 406.938 195.312 409 196C410.05 199.149 410.101 201.388 410.062 204.688C410.053 205.681 410.044 206.675 410.035 207.699C410.024 208.458 410.012 209.218 410 210C409.67 210 409.34 210 409 210C407.898 205.591 407.923 201.516 408 197C407.34 197 406.68 197 406 197C405.752 197.577 405.505 198.155 405.25 198.75C403.833 201.3 402.124 203.018 400 205C399.67 204.01 399.34 203.02 399 202C399.66 202 400.32 202 401 202C401 201.01 401 200.02 401 199C401.66 199 402.32 199 403 199C403.66 197.68 404.32 196.36 405 195Z" fill="#9FA298"/>
<path d="M366 241C366.33 241.66 366.66 242.32 367 243C366.361 243.743 365.721 244.485 365.062 245.25C362.928 247.706 362.928 247.706 362.562 249.938C361.621 253.388 359.433 255.456 357 258C354.188 259.375 354.188 259.375 352 260C352.34 259.55 352.681 259.1 353.031 258.637C357.423 252.808 361.719 246.911 366 241Z" fill="#263539"/>
<path d="M350 232C350.66 232.33 351.32 232.66 352 233C351.01 234.485 351.01 234.485 350 236C350 236.99 350 237.98 350 239C348.875 241.188 348.875 241.188 347 243C343.812 243.25 343.812 243.25 341 243C341.934 241.727 342.873 240.457 343.812 239.188C344.335 238.48 344.857 237.772 345.395 237.043C346.831 235.215 348.318 233.601 350 232Z" fill="#C0BFB4"/>
<path d="M386 158C387.32 158.33 388.64 158.66 390 159C390 159.66 390 160.32 390 161C389 162 388 163 387 164C386.227 165.33 386.227 165.33 385.438 166.688C384.963 167.451 384.489 168.214 384 169C383.34 169 382.68 169 382 169C381.67 170.65 381.34 172.3 381 174C380.25 172.25 380.25 172.25 380 170C381.938 167.75 381.938 167.75 384 166C383.34 165.34 382.68 164.68 382 164C384 162 384 162 386 161C386 160.01 386 159.02 386 158Z" fill="#E6E5D5"/>
<path d="M284 325C284.66 325.33 285.32 325.66 286 326C285.446 326.459 284.891 326.918 284.32 327.391C283.596 328.004 282.871 328.618 282.125 329.25C281.406 329.853 280.686 330.457 279.945 331.078C278.009 332.991 277.19 334.595 276 337C273 338.812 273 338.812 270 340C269.34 339.67 268.68 339.34 268 339C273.254 334.234 278.502 329.485 284 325Z" fill="#131A1E"/>
<path d="M407 201C409.703 205.866 410.129 210.306 410.062 215.812C410.053 216.788 410.044 217.764 410.035 218.77C410.024 219.506 410.012 220.242 410 221C407.323 218.33 406.997 216.963 406.707 213.109C406.727 211.656 406.762 210.203 406.812 208.75C406.826 208.005 406.84 207.26 406.854 206.492C406.889 204.661 406.943 202.83 407 201Z" fill="#081314"/>
<path d="M343 249C343.66 249.99 344.32 250.98 345 252C344 254 343 256 342 258C342.66 258.33 343.32 258.66 344 259C342.68 259.99 341.36 260.98 340 262C339.67 260.02 339.34 258.04 339 256C339.66 256 340.32 256 341 256C341.144 255.031 341.289 254.061 341.438 253.062C342 250 342 250 343 249ZM338 262C338.99 262.495 338.99 262.495 340 263C339.01 263.495 339.01 263.495 338 264C338 263.34 338 262.68 338 262Z" fill="#D5D5CC"/>
<path d="M311 246C311 246.99 311 247.98 311 249C310.111 249.383 310.111 249.383 309.203 249.773C306.788 251.118 305.488 252.492 303.75 254.625C303.229 255.257 302.708 255.888 302.172 256.539C301.785 257.021 301.398 257.503 301 258C300.01 257.67 299.02 257.34 298 257C299.118 255.661 300.245 254.329 301.375 253C302.001 252.257 302.628 251.515 303.273 250.75C303.843 250.173 304.413 249.595 305 249C305.66 249 306.32 249 307 249C307 248.34 307 247.68 307 247C309 246 309 246 311 246Z" fill="#B5B6A8"/>
<path d="M313 240C314.32 240.33 315.64 240.66 317 241C316.67 241.928 316.34 242.856 316 243.812C314.85 246.92 314.85 246.92 315 250C314.01 250 313.02 250 312 250C310.769 244.585 310.769 244.585 311.938 241.625C312.463 240.821 312.463 240.821 313 240Z" fill="#DDDED1"/>
<path d="M296 268C294.665 272.006 292.472 272.757 289 275C288.67 275.66 288.34 276.32 288 277C286.021 277.727 284.02 278.398 282 279C283.165 277.835 284.33 276.671 285.5 275.512C286.536 274.467 287.556 273.406 288.562 272.332C292.678 268 292.678 268 296 268Z" fill="#D4D5C8"/>
<path d="M261 328C261.66 328.33 262.32 328.66 263 329C263 330.32 263 331.64 263 333C262.34 333 261.68 333 261 333C260.67 333.99 260.34 334.98 260 336C258.68 336 257.36 336 256 336C256.542 332.204 258.201 330.528 261 328Z" fill="#A09D92"/>
<path d="M385 210C387.31 210.33 389.62 210.66 392 211C390.35 212.65 388.7 214.3 387 216C386.01 215.67 385.02 215.34 384 215C384.33 213.35 384.66 211.7 385 210Z" fill="#DBDACB"/>
<path d="M276 322C276.33 323.32 276.66 324.64 277 326C274.25 328.062 274.25 328.062 271 330C269.68 329.67 268.36 329.34 267 329C269.97 326.69 272.94 324.38 276 322Z" fill="#BDBFB8"/>
<path d="M319 239C319.66 239.33 320.32 239.66 321 240C320.401 243.356 319.154 245.378 317 248C316.01 247.67 315.02 247.34 314 247C317.875 240.125 317.875 240.125 319 239Z" fill="#E9E9DB"/>
<path d="M251 339C252.461 341.647 253 342.894 253 346C251.824 345.969 251.824 345.969 250.625 345.938C248.019 345.813 248.019 345.813 246 347C247.186 343.625 248.276 341.353 251 339Z" fill="#AEADA2"/>
<path d="M329 284C329 287 329 287 326.812 289.48C325.884 290.374 324.956 291.267 324 292.188C323.072 293.089 322.144 293.99 321.188 294.918C320.466 295.605 319.744 296.292 319 297C319 292.832 321.239 290.858 324 288C325.631 286.623 327.287 285.273 329 284Z" fill="#EDF2E8"/>
<path d="M310 284C310.66 284.66 311.32 285.32 312 286C309.805 290.511 307.588 292.063 303 294C303.473 289.745 305.964 287.808 309 285C309.33 284.67 309.66 284.34 310 284Z" fill="#B7C1B8"/>
<path d="M378 175C378 178.389 377.723 180.079 376 183C372.375 184.312 372.375 184.312 369 185C369.936 183.894 370.874 182.791 371.812 181.688C372.335 181.073 372.857 180.458 373.395 179.824C374.872 178.146 376.4 176.561 378 175Z" fill="#DAE3DB"/>
<path d="M301.75 288.688C302.864 288.842 302.864 288.842 304 289C304 289.66 304 290.32 304 291C303.072 291.433 302.144 291.866 301.188 292.312C298.528 293.72 296.919 294.761 295 297C295 292.431 297.045 289.222 301.75 288.688Z" fill="#A1A89E"/>
<path d="M285 303C283.559 306.362 281.752 308.592 279 311C278.34 311 277.68 311 277 311C277.677 306.258 280.047 303 285 303Z" fill="#F8F7F2"/>
<path d="M336 274C336.66 274.66 337.32 275.32 338 276C336.881 277.173 335.755 278.338 334.625 279.5C333.999 280.15 333.372 280.799 332.727 281.469C331 283 331 283 329 283C330.555 279.183 333.036 276.808 336 274Z" fill="#B3BEB4"/>
<path d="M366 218C366.99 218.33 367.98 218.66 369 219C368.188 220.938 368.188 220.938 367 223C366.01 223.33 365.02 223.66 364 224C363.01 225.485 363.01 225.485 362 227C361.34 226.67 360.68 226.34 360 226C360.66 224.68 361.32 223.36 362 222C362.99 222 363.98 222 365 222C365.33 220.68 365.66 219.36 366 218Z" fill="#D6D3C6"/>
<path d="M350 203C352 206 352 206 352 208C351.01 208 350.02 208 349 208C349 208.66 349 209.32 349 210C347.68 210 346.36 210 345 210C346.293 207.116 347.659 205.128 350 203Z" fill="#DBDED4"/>
<path d="M310 245C310.66 245 311.32 245 312 245C312.33 245.99 312.66 246.98 313 248C311.596 250.264 309.803 252.021 308 254C307.01 253.67 306.02 253.34 305 253C306.312 251 306.312 251 308 249C308.99 249 309.98 249 311 249C310.67 247.68 310.34 246.36 310 245Z" fill="#CAC9BC"/>
<path d="M330 254C330.99 254.33 331.98 254.66 333 255C332.67 255.66 332.34 256.32 332 257C331.34 257 330.68 257 330 257C330 257.66 330 258.32 330 259C328.35 259.66 326.7 260.32 325 261C326.293 258.116 327.659 256.128 330 254Z" fill="#A2A69D"/>
<path d="M321 235C320.75 236.875 320.75 236.875 320 239C317.938 240.25 317.938 240.25 316 241C315.34 240.34 314.68 239.68 314 239C318.75 235 318.75 235 321 235Z" fill="#C8D0C4"/>
<path d="M354 229C355 231 355 231 354.062 234.125C353.712 235.074 353.361 236.022 353 237C351.68 236.67 350.36 236.34 349 236C350.65 233.69 352.3 231.38 354 229Z" fill="#CBCABE"/>
<path d="M324 260C325.65 260 327.3 260 329 260C329 260.99 329 261.98 329 263C327.02 263.33 325.04 263.66 323 264C323.33 262.68 323.66 261.36 324 260Z" fill="#AEB0AB"/>
<path d="M641 189C637.306 238.251 630.843 291.207 592.43 326.352C583.544 333.752 574.037 338.874 563.188 342.75C562.016 343.173 562.016 343.173 560.821 343.604C547.538 348.126 534.944 349.44 521.063 349.187C519.589 349.172 518.116 349.159 516.643 349.146C513.095 349.114 509.548 349.063 506 349C507.795 345.12 510.101 342.73 513.188 339.75C517.11 335.919 520.831 331.998 524.391 327.828C526.026 325.971 527.735 324.234 529.5 322.5C532.511 319.536 535.292 316.433 538.051 313.234C540.33 310.621 542.662 308.061 545 305.5C551.324 298.55 557.417 291.503 563.313 284.187C567.971 278.411 572.752 272.834 577.793 267.387C581.561 263.311 585.181 259.106 588.809 254.906C592.555 250.588 596.403 246.472 600.547 242.527C607.531 235.751 613.498 228.174 619.125 220.25C622.326 215.787 625.667 211.431 630 208C630.66 208 631.32 208 632 208C632.217 206.855 632.217 206.855 632.438 205.687C633 203 633 203 634 200C633.34 200 632.68 200 632 200C632 200.66 632 201.32 632 202C630.686 202.888 629.366 203.767 628.027 204.617C615.585 213.104 603.688 224.079 593.938 235.562C589.763 240.431 585.17 244.882 580.594 249.369C577.519 252.403 574.556 255.465 571.75 258.75C566.505 264.832 560.683 270.373 554.97 276.009C549.622 281.292 544.325 286.564 539.469 292.312C537.888 294.128 536.219 295.815 534.5 297.5C532.131 299.822 529.945 302.209 527.813 304.75C524.783 308.279 521.455 311.397 518 314.5C513.956 318.133 510.224 321.858 506.719 326.016C504.664 328.388 502.51 330.635 500.313 332.875C499.224 333.985 499.224 333.985 498.113 335.117C496.119 336.894 494.391 337.871 492 339C488.53 305.696 487.079 271.44 509.063 243.625C510.37 242.079 511.682 240.537 513 239C513.468 238.388 513.936 237.775 514.418 237.144C526.225 222.014 547.636 212.297 565.41 206.234C568.841 205.055 572.152 203.706 575.5 202.312C581.619 199.942 587.69 198.76 594.129 197.672C597.441 197.097 600.672 196.414 603.938 195.625C610.597 194.051 617.294 192.673 624 191.312C625.649 190.972 625.649 190.972 627.332 190.625C628.377 190.415 629.423 190.205 630.5 189.988C631.438 189.798 632.377 189.607 633.344 189.411C635.944 189.009 638.374 188.925 641 189Z" fill="#38B963"/>
<path d="M70.5 142.563C72.378 142.547 72.378 142.547 74.2939 142.532C85.2177 142.635 95.0985 144.716 105.062 149.188C106.074 149.639 106.074 149.639 107.105 150.1C124.073 157.965 133.63 171.314 140.324 188.375C144.128 200.365 145.203 213.451 145 226C140.133 225.394 136.369 223.304 132.125 221C131.371 220.597 130.617 220.194 129.84 219.779C125.084 217.21 120.465 214.477 115.875 211.625C106.864 206.062 97.2598 201.702 87.6689 197.244C85.322 196.15 82.9833 195.041 80.6484 193.922C73.8416 190.671 66.9896 187.731 59.9023 185.141C57 184 57 184 53.9336 182.449C51.3074 181.152 48.9441 180.307 46.125 179.562C42.0622 178.403 38.5216 176.866 34.7891 174.91C29.9049 172.425 24.7045 171.471 19.3672 170.465C17.2221 170.044 15.115 169.551 13 169C13 169.66 13 170.32 13 171C14.65 171.33 16.3 171.66 18 172C18 172.66 18 173.32 18 174C18.7966 174.17 19.5933 174.34 20.4141 174.516C21.4737 174.758 22.5333 175 23.625 175.25C24.6691 175.482 25.7133 175.714 26.7891 175.953C30.4134 177.135 32.8631 178.836 36 181C39.2123 182.802 42.4803 184.493 45.75 186.188C46.6124 186.638 47.4748 187.089 48.3633 187.553C52.6688 189.801 52.6688 189.801 57 192C57 192.66 57 193.32 57 194C57.7203 194.12 58.4407 194.24 59.1829 194.364C68.2221 196.404 76.737 201.853 84.8125 206.25C85.8686 206.825 86.9246 207.4 88.0127 207.992C95.9179 212.334 103.573 216.874 111 222C111.773 222.533 112.547 223.065 113.343 223.614C140.118 242.118 140.118 242.118 143 245C143.041 247 143.043 249 143 251C139.689 251.963 136.376 252.919 133.062 253.875C132.136 254.144 131.21 254.414 130.256 254.691C105.795 261.729 81.5595 259.594 58.3633 248.77C45.4013 240.983 35.5636 227.795 28 215C27.5986 214.325 27.1972 213.65 26.7837 212.955C20.9085 202.968 15.7879 192.658 10.9299 182.143C8.3523 176.61 5.53925 171.419 2.22559 166.289C0.917041 163.845 0.406285 161.729 0 159C4.56859 156.914 9.07822 155.328 13.9023 153.945C16.278 153.22 18.6027 152.448 20.9414 151.617C37.4976 145.763 52.859 142.664 70.5 142.563Z" fill="#259950"/>
<path d="M203.281 30.0273C205.665 31.3762 206.477 32.8638 207.812 35.25C208.329 36.1627 208.846 37.0753 209.379 38.0156C209.914 39.0005 210.449 39.9853 211 41C211.525 41.9642 212.049 42.9284 212.59 43.9219C213.732 46.0389 214.868 48.1589 216 50.2813C218.372 54.7124 220.81 59.1064 223.25 63.5C223.674 64.2657 224.099 65.0314 224.536 65.8203C226.63 69.5865 228.77 73.312 231 77C234 82.5556 234 82.5556 234 86C231.59 87.5709 229.212 88.9474 226.688 90.3125C209.85 99.9582 196.056 111.491 182.375 125.188C181.728 125.834 181.081 126.481 180.414 127.147C172.821 134.769 165.598 142.488 159 151C158.511 151.625 158.022 152.25 157.518 152.894C156.372 154.376 155.247 155.875 154.125 157.375C153.406 158.331 152.686 159.288 151.945 160.273C150.154 162.785 148.543 165.331 147 168C143.854 165.712 141.268 163.253 138.75 160.312C126.541 146.222 114.582 139.366 97 134C94.3132 133.044 91.659 132.031 89 131C96.8793 115.467 106.58 103.304 119 91C121.665 88.3437 124.318 85.6779 126.945 82.9844C133.626 76.1675 140.48 69.8991 148 64C148.82 63.3245 149.64 62.6491 150.484 61.9531C155.701 57.6671 161.09 53.817 166.746 50.1328C169.034 48.6332 171.29 47.1155 173.535 45.5547C180.049 41.0536 186.635 36.9245 193.688 33.3125C194.359 32.9612 195.03 32.61 195.722 32.248C198.287 30.979 200.387 29.9927 203.281 30.0273Z" fill="#54C4A7"/>
<path d="M362 1C378.988 0.019949 396 4.5 413.5 9.50001C436.5 16.0715 434 16.5 451.5 24.5C466.387 34.478 478 40.5 497 56C482.589 74.5585 464.5 95 449 112C427.5 92.5 427.5 92.4762 408 83.5C376.5 69 355 70 354 69C354.144 58.1286 355.72 47.2603 357.102 36.4927C357.438 33.872 357.767 31.2506 358.096 28.6289C359.26 19.3956 360.512 10.1876 362 1Z" fill="#58CDAF"/>
<path d="M503 66C508.122 70.3351 513.098 74.7926 518 79.375C518.673 79.9963 519.346 80.6177 520.039 81.2578C526.942 87.7073 532.944 94.8012 538.812 102.188C539.269 102.758 539.726 103.328 540.197 103.916C541.809 105.936 543.405 107.967 545 110C545.743 110.939 546.485 111.878 547.25 112.845C553.716 121.083 559.638 129.616 565.375 138.375C565.829 139.065 566.283 139.755 566.75 140.465C574.276 151.935 580.956 163.614 586.966 175.958C588.059 178.186 588.059 178.186 589.805 180.926C591 183 591 183 591 186C590.156 186.162 589.312 186.324 588.443 186.491C579.578 188.281 571.168 190.701 562.625 193.688C561.685 194.013 561.685 194.013 560.725 194.345C549.641 198.196 538.805 202.463 529 209C524.227 202.81 520.483 196.317 516.812 189.438C509.332 175.53 500.239 163.009 490 151C489.077 149.892 488.156 148.784 487.234 147.676C479.075 137.927 470.476 128.463 460.688 120.312C459.801 119.549 458.914 118.786 458 118C458 117.34 458 116.68 458 116C459.404 114.836 460.811 113.676 462.234 112.535C464.785 110.318 466.899 107.797 469.09 105.23C471.148 102.827 473.255 100.474 475.375 98.125C476.512 96.8643 476.512 96.8643 477.672 95.5781C479.224 93.8594 480.776 92.1406 482.328 90.4219C484.556 87.9514 486.78 85.4774 489 83C489.619 82.3104 490.238 81.6207 490.875 80.9102C495.138 76.1048 499.109 71.1098 503 66Z" fill="#2D4142"/>
<path d="M146 286C146.15 286.547 146.301 287.094 146.456 287.658C154.221 315.765 163.99 343.298 183 366C184.18 367.426 185.347 368.864 186.5 370.312C187.005 370.927 187.511 371.542 188.031 372.176C189 374 189 374 188.969 375.879C187.556 378.973 185.33 381.204 183 383.625C181.993 384.698 180.987 385.771 179.98 386.844C179.477 387.376 178.973 387.909 178.455 388.457C173.506 393.706 168.71 399.03 164.312 404.75C160.724 409.295 156.811 413.443 152.75 417.562C151.846 418.493 151.846 418.493 150.923 419.442C150.345 420.02 149.767 420.597 149.172 421.191C148.657 421.709 148.143 422.227 147.612 422.76C145.769 424.178 144.27 424.591 142 425C141.562 424.392 141.123 423.783 140.672 423.156C136.486 417.371 132.235 411.64 127.938 405.938C123.503 400.039 119.119 394.126 115 388C114.305 386.97 113.61 385.94 112.895 384.879C103.073 370.095 95.5422 354.472 89 338C88.6342 337.085 88.2685 336.17 87.8916 335.227C86.77 332.406 85.6631 329.579 84.5625 326.75C84.2202 325.881 83.8778 325.012 83.5251 324.116C81.7114 319.374 80.4854 315.059 80 310C81.1975 309.576 82.3951 309.152 83.6289 308.715C93.2782 305.256 102.569 301.499 111.805 297.043C116.427 294.846 121.092 292.742 125.75 290.625C126.716 290.184 127.682 289.742 128.677 289.288C129.583 288.876 130.489 288.464 131.422 288.039C132.232 287.67 133.043 287.301 133.878 286.92C138.395 284.961 141.171 285.18 146 286Z" fill="#208E74"/>
<path d="M398 425C404.154 435.174 409.307 445.713 414.375 456.461C417.039 462.111 419.822 467.693 422.66 473.258C423.904 475.803 424.963 478.365 426 481C405.682 489.306 385.061 495.02 363.438 498.75C362.44 498.924 362.44 498.924 361.423 499.101C349.111 501.089 336.709 501.186 324.271 501.185C321.571 501.187 318.87 501.206 316.17 501.225C291.607 501.304 291.607 501.304 285 498C284.752 492.961 284.903 488.814 286.356 483.973C288.111 477.791 289.331 471.565 290.5 465.25C290.933 462.962 291.367 460.674 291.801 458.387C292.365 455.389 292.927 452.391 293.486 449.393C293.881 447.282 294.283 445.172 294.688 443.062C294.898 441.94 295.108 440.817 295.324 439.66C296 437 296 437 298 434C302.412 433.201 307.201 433.996 311.629 434.496C337.271 437.095 362.28 432.835 387.069 426.487C390.865 425.53 394.064 425 398 425Z" fill="#21927B"/>
<path d="M331.625 0.875012C332.366 0.872333 333.107 0.869654 333.87 0.866894C335.989 0.861071 338.108 0.862751 340.227 0.867199C341.46 0.868327 342.693 0.869455 343.963 0.870617C347 1.00001 347 1.00001 350 2.00001C350.332 10.831 349.218 19.3281 348.029 28.0559C347.692 30.5318 347.366 33.0088 347.041 35.4863C345.639 46.0455 343.938 56.5265 342 67C341.044 67.0198 340.089 67.0397 339.104 67.0601C309.248 67.7007 280.988 68.9918 252.544 79.1201C249.557 80.1837 247.199 81 244 81C233.175 60.4359 233.175 60.4359 228.535 51.0352C226.156 46.3308 223.662 41.6871 221.158 37.0479C215 25.5473 215 25.5473 215 20C240.059 10.6218 266.262 3.9701 293 2.00001C293.75 1.94362 294.5 1.88722 295.272 1.82911C307.378 0.975776 319.495 0.900231 331.625 0.875012Z" fill="#49775A"/>
<path d="M350 2C350.332 10.831 349.218 19.3281 348.029 28.0559C347.692 30.5318 347.366 33.0088 347.041 35.4863C345.639 46.0455 343.938 56.5265 342 67C341.045 67.0198 340.089 67.0396 339.105 67.0601C309.248 67.7007 280.988 68.9918 252.544 79.1201C249.557 80.1837 247.199 81 244 81C242.879 73.152 247.409 74.6359 249 68C250.208 66.3118 250.208 66.3118 251.738 64.6445C252.305 64.0263 252.872 63.408 253.456 62.771C254.069 62.1247 254.681 61.4784 255.313 60.8125C255.941 60.1456 256.57 59.4786 257.218 58.7915C267.952 47.6395 281.659 36.7022 297.746 35.8555C299.443 35.8681 301.14 35.9017 302.836 35.9609C305.337 36.0061 307.578 35.6054 310 35C310.66 35 311.32 35 312 35C313.546 33.7422 315.037 32.4164 316.5 31.0625C317.393 30.2427 318.287 29.4228 319.207 28.5781C320.59 27.302 320.59 27.302 322 26C325.322 22.9877 328.66 19.9926 332 17C332.686 16.3735 333.372 15.747 334.078 15.1016C341.227 8.70401 340.754 2.00007 350 2Z" fill="#305A4B"/>
<path d="M196 386C200.781 386.726 204.313 390.191 207.953 393.09C211.592 396.486 214.892 398.748 219 401.875C239.752 416.658 261.4 425.126 286 431C285.635 436.387 284.758 441.083 283.094 446.227C280.954 452.873 279.662 459.5 278.5 466.375C276.788 476.081 274.831 485.557 272 495C227.196 492.832 184.308 461.426 152 433C156.101 428.114 160.349 423.493 164.875 419C165.491 418.384 166.108 417.768 166.743 417.134C169.837 414.063 172.957 411.101 176.312 408.312C180.354 404.892 183.524 400.867 186.812 396.734C189.759 393.052 192.863 389.52 196 386Z" fill="#172C32"/>
<path d="M70.5 142.563C72.378 142.547 72.378 142.547 74.2939 142.532C85.2177 142.635 95.0985 144.716 105.062 149.188C106.074 149.639 106.074 149.639 107.105 150.1C124.189 158.019 133.716 171.488 140.43 188.656C142.965 196.558 143.2 202.803 142 211C138.37 211 134.74 211 131 211C131 210.34 131 209.68 131 209C130.348 208.963 129.695 208.925 129.023 208.887C123.723 208.488 119.583 207.938 115 205C114.67 204.34 114.34 203.68 114 203C112.25 202.203 112.25 202.203 110.188 201.562C106.961 200.431 104.726 199.068 102 197C100.34 196.636 98.6729 196.3 97 196C95.515 195.01 95.515 195.01 94 194C94 193.34 94 192.68 94 192C92.35 192 90.7 192 89 192C89 191.34 89 190.68 89 190C88.3606 189.897 87.7212 189.794 87.0625 189.688C84.4249 189.095 82.0413 188.337 79.5 187.438C76.2095 186.306 73.5181 185.66 70 186C70 185.01 70 184.02 70 183C69.3941 182.83 68.7883 182.66 68.1641 182.484C61.9367 180.683 55.9837 178.484 50 176C48.3339 175.332 46.6672 174.665 45 174C44.1866 173.67 43.3732 173.34 42.5352 173C41.7192 172.67 40.9032 172.34 40.0625 172C39.2491 171.67 38.4357 171.34 37.5977 171C31.6648 168.716 25.7748 167.215 19.5625 165.938C18.3318 165.677 18.3318 165.677 17.0762 165.412C12.3974 164.438 7.73908 163.619 3 163C2.67 163.66 2.34 164.32 2 165C1.34 163.02 0.68 161.04 0 159C4.56859 156.914 9.07822 155.328 13.9023 153.945C16.278 153.22 18.6027 152.448 20.9414 151.617C37.4976 145.763 52.859 142.664 70.5 142.563Z" fill="#38B963"/>
<path d="M70 266C71.7082 265.973 73.4166 265.953 75.125 265.937C76.0763 265.926 77.0277 265.914 78.0078 265.902C81 266 81 266 83.6943 266.498C87.4424 267.067 91.1029 267.144 94.8828 267.133C95.9879 267.134 95.9879 267.134 97.1152 267.136C98.6632 267.136 100.211 267.135 101.759 267.13C104.125 267.125 106.49 267.13 108.855 267.137C110.365 267.136 111.874 267.135 113.383 267.133C114.087 267.135 114.791 267.137 115.517 267.139C118.848 267.123 121.8 266.916 125 266C127.722 265.855 130.403 265.769 133.125 265.75C134.217 265.719 134.217 265.719 135.332 265.687C137.445 265.672 137.445 265.672 141 266C143 269 143 269 143.625 271.375C142.865 274.565 142.179 274.881 139.5 276.625C136.159 278.51 132.794 279.967 129.172 281.213C123.071 283.424 117.24 286.349 111.416 289.197C103.903 292.854 96.3411 296.171 88.5 299.062C87.6932 299.361 86.8864 299.66 86.0552 299.968C82.9248 301.093 80.3519 302 77 302C69.7541 275.738 69.7541 275.738 70 266Z" fill="#2B5851"/>
<path d="M458 389.5C473 376 451 395.154 495 360C494.263 360.589 570.26 356.893 569.5 357.5C553 385 536 408.5 495 442.5C491 445 478 454 439 476C426 450.5 426 451.5 411.5 420C415.386 416.621 419.5 414.5 436 405.5C441.091 401.463 453.509 394.187 458 389.5Z" fill="#1C2B2C"/>
</g>
<defs>
<clipPath id="clip0_1_1553">
<rect width="641" height="502" fill="white"/>
</clipPath>
</defs>
</svg>
